<svg width="11" height="18" viewBox="0 0 11 18" fill="none" xmlns="http://www.w3.org/2000/svg">
<path d="M1.35758 17.0062C1.36126 17.4204 1.70001 17.7532 2.11421 17.7495C2.52841 17.7458 2.8612 17.4071 2.85752 16.9929L1.35758 17.0062ZM1.25101 5.00666L1.35758 17.0062L2.85752 16.9929L2.75095 4.99334L1.25101 5.00666Z" fill="black"/>
<path d="M2.71542 0.993497C2.71174 0.5793 2.37299 0.246509 1.95879 0.250187C1.5446 0.253866 1.2118 0.592621 1.21548 1.00682L2.71542 0.993497ZM2.75095 4.99334L2.71542 0.993497L1.21548 1.00682L1.25101 5.00666L2.75095 4.99334Z" fill="black"/>
<circle cx="2.01747" cy="7.00026" r="2" transform="rotate(179.491 2.01747 7.00026)" fill="black"/>
<circle cx="2.01753" cy="7.00013" r="1" transform="rotate(179.491 2.01753 7.00013)" fill="white"/>
<path d="M8.67758 0.993813C8.6739 0.579616 8.33515 0.246825 7.92095 0.250503C7.50675 0.254182 7.17396 0.592937 7.17764 1.00713L8.67758 0.993813ZM8.78415 12.9933L8.67758 0.993813L7.17764 1.00713L7.28421 13.0067L8.78415 12.9933Z" fill="black"/>
<path d="M7.31973 17.0065C7.32341 17.4207 7.66217 17.7535 8.07636 17.7498C8.49056 17.7461 8.82335 17.4074 8.81967 16.9932L7.31973 17.0065ZM7.28421 13.0067L7.31973 17.0065L8.81967 16.9932L8.78415 12.9933L7.28421 13.0067Z" fill="black"/>
<circle cx="8.01768" cy="10.9997" r="2" transform="rotate(-0.508844 8.01768 10.9997)" fill="black"/>
<circle cx="8.01763" cy="10.9999" r="1" transform="rotate(-0.508844 8.01763 10.9999)" fill="white"/>
</svg>
