<svg width="152" height="44" viewBox="0 0 152 44" fill="none" xmlns="http://www.w3.org/2000/svg">
<path d="M0 0H152V44H0V0Z" fill="black"/>
<path d="M0 0H152V44H0V0Z" fill="black"/>
<path d="M76 19.5C76 12.5964 81.5964 7 88.5 7V7C95.4036 7 101 12.5964 101 19.5V24.5C101 31.4036 95.4036 37 88.5 37V37C81.5964 37 76 31.4036 76 24.5V19.5Z" fill="#9224FF"/>
<path d="M16 19.5C16 12.5964 21.5964 7 28.5 7V7C35.4036 7 41 12.5964 41 19.5V24.5C41 31.4036 35.4036 37 28.5 37V37C21.5964 37 16 31.4036 16 24.5V19.5Z" fill="#9F23D9"/>
<path d="M16.0114 10.7273H19.5114L16.7614 27.2955C16.5189 28.7879 16.0303 30.0568 15.2955 31.1023C14.5682 32.1477 13.6402 32.947 12.5114 33.5C11.3902 34.0455 10.1098 34.3182 8.67045 34.3182C7.32955 34.3182 6.16667 34.0795 5.18182 33.6023C4.20455 33.1174 3.48485 32.4205 3.02273 31.5114C2.56818 30.5947 2.44318 29.4848 2.64773 28.1818H6.05682C5.96591 28.8485 6.02273 29.4167 6.22727 29.8864C6.43939 30.3561 6.7803 30.7159 7.25 30.9659C7.7197 31.2159 8.28788 31.3409 8.95455 31.3409C9.71212 31.3409 10.3902 31.178 10.9886 30.8523C11.5871 30.5265 12.0833 30.053 12.4773 29.4318C12.8712 28.8106 13.1439 28.053 13.2955 27.1591L16.0114 10.7273ZM40.0398 34L43.9034 10.7273H47.3011L45.8807 19.375H46.0852C46.3428 19.0114 46.6951 18.5909 47.142 18.1136C47.5966 17.6364 48.1837 17.2197 48.9034 16.8636C49.6231 16.5 50.5246 16.3182 51.608 16.3182C53.017 16.3182 54.214 16.6742 55.1989 17.3864C56.1837 18.0985 56.8807 19.125 57.2898 20.4659C57.6989 21.8068 57.7481 23.4205 57.4375 25.3068C57.1269 27.1932 56.5436 28.8106 55.6875 30.1591C54.839 31.5 53.8049 32.5341 52.5852 33.2614C51.3655 33.9811 50.0511 34.3409 48.642 34.3409C47.5814 34.3409 46.7443 34.1629 46.1307 33.8068C45.5246 33.4508 45.0701 33.0341 44.767 32.5568C44.4716 32.0795 44.2481 31.6553 44.0966 31.2841H43.8125L43.358 34H40.0398ZM44.8239 25.2727C44.6269 26.5 44.6269 27.5758 44.8239 28.5C45.0284 29.4242 45.4261 30.1477 46.017 30.6705C46.6155 31.1856 47.3996 31.4432 48.3693 31.4432C49.3845 31.4432 50.2784 31.1742 51.0511 30.6364C51.8239 30.0909 52.4602 29.3523 52.9602 28.4205C53.4602 27.4886 53.8087 26.4394 54.0057 25.2727C54.1875 24.1212 54.1837 23.0871 53.9943 22.1705C53.8049 21.2538 53.411 20.5303 52.8125 20C52.2216 19.4697 51.4148 19.2045 50.392 19.2045C49.4072 19.2045 48.5322 19.4583 47.767 19.9659C47.0019 20.4735 46.3693 21.1818 45.8693 22.0909C45.3693 23 45.0208 24.0606 44.8239 25.2727ZM60.071 34L63.9347 10.7273H72.4574C74.1089 10.7273 75.4309 11 76.4233 11.5455C77.4233 12.0833 78.1127 12.8144 78.4915 13.7386C78.8703 14.6553 78.9612 15.6894 78.7642 16.8409C78.6051 17.8106 78.2907 18.625 77.821 19.2841C77.3589 19.9432 76.7983 20.4735 76.1392 20.875C75.4801 21.2765 74.7869 21.5682 74.0597 21.75L74.0142 21.9773C74.7718 22.0152 75.4801 22.2652 76.1392 22.7273C76.8059 23.1818 77.3134 23.8295 77.6619 24.6705C78.0104 25.5114 78.09 26.5341 77.9006 27.7386C77.696 28.928 77.2339 29.9962 76.5142 30.9432C75.8021 31.8826 74.821 32.6288 73.571 33.1818C72.321 33.7273 70.7945 34 68.9915 34H60.071ZM64.0824 30.9886H69.1506C70.8324 30.9886 72.09 30.6629 72.9233 30.0114C73.7642 29.3598 74.2718 28.5455 74.446 27.5682C74.5597 26.8333 74.4801 26.1591 74.2074 25.5455C73.9422 24.9318 73.4953 24.4432 72.8665 24.0795C72.2453 23.7159 71.465 23.5341 70.5256 23.5341H65.3324L64.0824 30.9886ZM65.7983 20.7955H70.4915C71.2794 20.7955 72.0142 20.6439 72.696 20.3409C73.3854 20.0379 73.9574 19.6098 74.4119 19.0568C74.8741 18.5038 75.1619 17.8561 75.2756 17.1136C75.4422 16.1439 75.2415 15.3371 74.6733 14.6932C74.1127 14.0417 73.1392 13.7159 71.7528 13.7159H66.9574L65.7983 20.7955ZM105.051 34.3864C103.945 34.3864 102.979 34.1818 102.153 33.7727C101.328 33.3561 100.718 32.7538 100.324 31.9659C99.9299 31.178 99.8277 30.2121 100.017 29.0682C100.184 28.0833 100.509 27.2727 100.994 26.6364C101.487 26 102.085 25.4962 102.79 25.125C103.494 24.7462 104.259 24.4621 105.085 24.2727C105.911 24.0833 106.744 23.9432 107.585 23.8523C108.646 23.7311 109.506 23.6288 110.165 23.5455C110.831 23.4621 111.331 23.3333 111.665 23.1591C111.998 22.9773 112.199 22.6818 112.267 22.2727V22.1932C112.426 21.2083 112.282 20.4432 111.835 19.8977C111.396 19.3447 110.631 19.0682 109.54 19.0682C108.403 19.0682 107.449 19.3182 106.676 19.8182C105.911 20.3182 105.347 20.8788 104.983 21.5L101.938 20.7727C102.483 19.7121 103.176 18.8561 104.017 18.2045C104.866 17.5455 105.794 17.0682 106.801 16.7727C107.809 16.4697 108.839 16.3182 109.892 16.3182C110.589 16.3182 111.312 16.4015 112.062 16.5682C112.812 16.7273 113.494 17.0227 114.108 17.4545C114.729 17.8864 115.191 18.5038 115.494 19.3068C115.797 20.1023 115.843 21.1364 115.631 22.4091L113.71 34H110.392L110.801 31.6136H110.665C110.377 32.053 109.975 32.4848 109.46 32.9091C108.953 33.3333 108.331 33.6856 107.597 33.9659C106.862 34.2462 106.013 34.3864 105.051 34.3864ZM106.21 31.6591C107.157 31.6591 107.994 31.4735 108.722 31.1023C109.456 30.7311 110.051 30.2462 110.506 29.6477C110.96 29.0417 111.244 28.3939 111.358 27.7045L111.733 25.4545C111.589 25.5758 111.335 25.6856 110.972 25.7841C110.616 25.8826 110.214 25.9697 109.767 26.0455C109.32 26.1212 108.881 26.1856 108.449 26.2386C108.025 26.2917 107.672 26.3409 107.392 26.3864C106.725 26.4697 106.1 26.6098 105.517 26.8068C104.941 27.0038 104.46 27.2879 104.074 27.6591C103.688 28.0227 103.445 28.5076 103.347 29.1136C103.21 29.9545 103.411 30.5909 103.949 31.0227C104.494 31.447 105.248 31.6591 106.21 31.6591ZM118.236 34L121.145 16.5455H124.429L123.963 19.3182H124.145C124.615 18.3788 125.3 17.6402 126.202 17.1023C127.103 16.5568 128.065 16.2841 129.088 16.2841C129.308 16.2841 129.558 16.2917 129.838 16.3068C130.118 16.3144 130.346 16.3333 130.52 16.3636L129.974 19.6136C129.846 19.5758 129.611 19.5341 129.27 19.4886C128.929 19.4356 128.577 19.4091 128.213 19.4091C127.418 19.4091 126.679 19.5795 125.997 19.9205C125.315 20.2538 124.743 20.7197 124.281 21.3182C123.819 21.9091 123.52 22.5833 123.384 23.3409L121.634 34H118.236ZM136.466 34.3409C135.049 34.3409 133.848 33.9811 132.864 33.2614C131.886 32.5341 131.193 31.5 130.784 30.1591C130.383 28.8106 130.337 27.1932 130.648 25.3068C130.966 23.4205 131.553 21.8068 132.409 20.4659C133.265 19.125 134.303 18.0985 135.523 17.3864C136.742 16.6742 138.057 16.3182 139.466 16.3182C140.549 16.3182 141.39 16.5 141.989 16.8636C142.595 17.2197 143.042 17.6364 143.33 18.1136C143.617 18.5909 143.833 19.0114 143.977 19.375H144.17L145.614 10.7273H149.011L145.148 34H141.83L142.295 31.2841H142.011C141.746 31.6553 141.379 32.0795 140.909 32.5568C140.447 33.0341 139.856 33.4508 139.136 33.8068C138.417 34.1629 137.527 34.3409 136.466 34.3409ZM137.614 31.4432C138.591 31.4432 139.466 31.1856 140.239 30.6705C141.019 30.1477 141.667 29.4242 142.182 28.5C142.705 27.5758 143.068 26.5 143.273 25.2727C143.477 24.0606 143.473 23 143.261 22.0909C143.049 21.1818 142.64 20.4735 142.034 19.9659C141.428 19.4583 140.629 19.2045 139.636 19.2045C138.614 19.2045 137.723 19.4697 136.966 20C136.208 20.5303 135.587 21.2538 135.102 22.1705C134.625 23.0871 134.292 24.1212 134.102 25.2727C133.905 26.4394 133.898 27.4886 134.08 28.4205C134.261 29.3523 134.644 30.0909 135.227 30.6364C135.811 31.1742 136.606 31.4432 137.614 31.4432Z" fill="white"/>
<path d="M29.2926 34.3523C27.6563 34.3523 26.2282 33.9773 25.0085 33.2273C23.7888 32.4773 22.8419 31.428 22.1676 30.0795C21.4934 28.7311 21.1562 27.1553 21.1562 25.3523C21.1562 23.5417 21.4934 21.9583 22.1676 20.6023C22.8419 19.2462 23.7888 18.1932 25.0085 17.4432C26.2282 16.6932 27.6563 16.3182 29.2926 16.3182C30.929 16.3182 32.357 16.6932 33.5767 17.4432C34.7964 18.1932 35.7434 19.2462 36.4176 20.6023C37.0919 21.9583 37.429 23.5417 37.429 25.3523C37.429 27.1553 37.0919 28.7311 36.4176 30.0795C35.7434 31.428 34.7964 32.4773 33.5767 33.2273C32.357 33.9773 30.929 34.3523 29.2926 34.3523ZM29.304 31.5C30.3646 31.5 31.2434 31.2197 31.9403 30.6591C32.6373 30.0985 33.1525 29.3523 33.4858 28.4205C33.8267 27.4886 33.9972 26.4621 33.9972 25.3409C33.9972 24.2273 33.8267 23.2045 33.4858 22.2727C33.1525 21.3333 32.6373 20.5795 31.9403 20.0114C31.2434 19.4432 30.3646 19.1591 29.304 19.1591C28.2358 19.1591 27.3494 19.4432 26.6449 20.0114C25.9479 20.5795 25.429 21.3333 25.0881 22.2727C24.7547 23.2045 24.5881 24.2273 24.5881 25.3409C24.5881 26.4621 24.7547 27.4886 25.0881 28.4205C25.429 29.3523 25.9479 30.0985 26.6449 30.6591C27.3494 31.2197 28.2358 31.5 29.304 31.5ZM89.5426 34.3523C87.9063 34.3523 86.4782 33.9773 85.2585 33.2273C84.0388 32.4773 83.0919 31.428 82.4176 30.0795C81.7434 28.7311 81.4062 27.1553 81.4062 25.3523C81.4062 23.5417 81.7434 21.9583 82.4176 20.6023C83.0919 19.2462 84.0388 18.1932 85.2585 17.4432C86.4782 16.6932 87.9063 16.3182 89.5426 16.3182C91.179 16.3182 92.607 16.6932 93.8267 17.4432C95.0464 18.1932 95.9934 19.2462 96.6676 20.6023C97.3419 21.9583 97.679 23.5417 97.679 25.3523C97.679 27.1553 97.3419 28.7311 96.6676 30.0795C95.9934 31.428 95.0464 32.4773 93.8267 33.2273C92.607 33.9773 91.179 34.3523 89.5426 34.3523ZM89.554 31.5C90.6146 31.5 91.4934 31.2197 92.1903 30.6591C92.8873 30.0985 93.4025 29.3523 93.7358 28.4205C94.0767 27.4886 94.2472 26.4621 94.2472 25.3409C94.2472 24.2273 94.0767 23.2045 93.7358 22.2727C93.4025 21.3333 92.8873 20.5795 92.1903 20.0114C91.4934 19.4432 90.6146 19.1591 89.554 19.1591C88.4858 19.1591 87.5994 19.4432 86.8949 20.0114C86.1979 20.5795 85.679 21.3333 85.3381 22.2727C85.0047 23.2045 84.8381 24.2273 84.8381 25.3409C84.8381 26.4621 85.0047 27.4886 85.3381 28.4205C85.679 29.3523 86.1979 30.0985 86.8949 30.6591C87.5994 31.2197 88.4858 31.5 89.554 31.5Z" fill="black"/>
</svg>
