<svg width="37" height="39" viewBox="0 0 37 39" fill="none" xmlns="http://www.w3.org/2000/svg">
<path d="M18.1733 3.23926C15.1766 3.23926 12.2472 4.18926 9.75552 5.96913C7.26387 7.74901 5.32186 10.2788 4.17508 13.2386C3.02829 16.1984 2.72824 19.4554 3.31287 22.5975C3.89749 25.7396 5.34053 28.6258 7.45951 30.8912C9.57849 33.1565 12.2782 34.6993 15.2173 35.3243C18.1564 35.9493 21.2029 35.6285 23.9715 34.4025C26.7401 33.1765 29.1064 31.1003 30.7713 28.4366C32.4361 25.7728 33.3248 22.6411 33.3248 19.4374C33.3249 17.3102 32.9331 15.2037 32.1718 13.2384C31.4104 11.2731 30.2943 9.48735 28.8874 7.98318C27.4804 6.47901 25.81 5.28588 23.9717 4.47191C22.1333 3.65794 20.163 3.23908 18.1733 3.23926Z" fill="black"/>
<path d="M25.697 20.5164C25.4747 20.5164 25.2424 20.4408 25.0202 20.3869C24.5702 20.2808 24.1279 20.1401 23.6969 19.9657C23.2284 19.7835 22.7133 19.7929 22.2508 19.9923C21.7883 20.1916 21.4112 20.5668 21.1919 21.0456L20.9697 21.5315C19.9858 20.9464 19.0818 20.2197 18.2828 19.3718C17.4896 18.5176 16.8099 17.5511 16.2626 16.4993L16.6869 16.1969C17.1347 15.9625 17.4856 15.5593 17.6721 15.0649C17.8586 14.5705 17.8674 14.0198 17.697 13.5188C17.5366 13.0571 17.405 12.5845 17.303 12.1042C17.2525 11.8666 17.2121 11.6183 17.1818 11.3699C17.0591 10.6093 16.6865 9.92042 16.1309 9.42746C15.5754 8.93449 14.8734 8.66979 14.1515 8.68101H11.1212C10.6859 8.67664 10.2548 8.77259 9.85726 8.96235C9.45975 9.1521 9.10514 9.43119 8.81759 9.78062C8.53003 10.1301 8.31628 10.5416 8.19088 10.9873C8.06548 11.433 8.03137 11.9023 8.09089 12.3634C8.62901 16.8874 10.5616 21.0908 13.5835 24.3096C16.6053 27.5285 20.5441 29.5793 24.7778 30.1381H25.1616C25.9065 30.1393 26.6256 29.8471 27.1818 29.3174C27.5014 29.0119 27.7566 28.6373 27.9308 28.2185C28.1049 27.7996 28.1939 27.346 28.1919 26.8877V23.6481C28.1795 22.898 27.924 22.1757 27.469 21.6046C27.014 21.0335 26.3877 20.6489 25.697 20.5164V20.5164ZM26.202 26.9957C26.2018 27.149 26.1711 27.3005 26.1119 27.4402C26.0527 27.5798 25.9663 27.7044 25.8586 27.8056C25.746 27.9104 25.6141 27.9885 25.4714 28.0351C25.3286 28.0816 25.1783 28.0954 25.0303 28.0756C21.2474 27.557 17.7336 25.7068 15.0431 22.8169C12.3527 19.9269 10.6388 16.1617 10.1717 12.115C10.1556 11.9568 10.1697 11.7968 10.2131 11.6446C10.2565 11.4924 10.3283 11.3512 10.4242 11.2295C10.5189 11.1143 10.6354 11.022 10.766 10.9587C10.8966 10.8954 11.0384 10.8625 11.1818 10.8624H14.2121C14.447 10.8568 14.6764 10.9389 14.8607 11.0946C15.0451 11.2503 15.1729 11.4699 15.2222 11.7155C15.2626 12.0106 15.3131 12.3022 15.3737 12.5902C15.4904 13.1594 15.6457 13.7188 15.8384 14.264L14.4242 14.9659C14.3033 15.0252 14.1945 15.1094 14.1042 15.2138C14.0138 15.3182 13.9436 15.4406 13.8976 15.5741C13.8516 15.7075 13.8308 15.8494 13.8362 15.9915C13.8416 16.1336 13.8733 16.2731 13.9293 16.4021C15.383 19.7311 17.8861 22.4071 21 23.9612C21.2459 24.0692 21.5217 24.0692 21.7677 23.9612C21.8936 23.9131 22.0094 23.8386 22.1082 23.7422C22.2071 23.6458 22.287 23.5294 22.3434 23.3997L22.9697 21.8879C23.4919 22.0875 24.0248 22.2534 24.5656 22.3846C24.835 22.4494 25.1077 22.5034 25.3838 22.5466C25.6135 22.5993 25.8189 22.7359 25.9646 22.933C26.1102 23.1301 26.187 23.3754 26.1818 23.6265L26.202 26.9957Z" fill="url(#paint0_linear_603_61)"/>
<defs>
<linearGradient id="paint0_linear_603_61" x1="18" y1="36" x2="18" y2="2.5" gradientUnits="userSpaceOnUse">
<stop stop-color="#FDFF90" stop-opacity="0.4"/>
<stop offset="0.501361" stop-color="#FBFE44"/>
<stop offset="1" stop-color="#FDFF90" stop-opacity="0.4"/>
</linearGradient>
</defs>
</svg>
