<svg width="40" height="39" viewBox="0 0 40 39" fill="none" xmlns="http://www.w3.org/2000/svg">
<path d="M19.9905 3.17383C16.6942 3.17383 13.4718 4.10476 10.731 5.84891C7.9902 7.59306 5.854 10.0721 4.59253 12.9725C3.33107 15.8729 3.00102 19.0645 3.64411 22.1435C4.28719 25.2226 5.87454 28.0509 8.20541 30.2708C10.5363 32.4906 13.506 34.0024 16.739 34.6149C19.972 35.2273 23.3231 34.913 26.3686 33.7116C29.414 32.5102 32.017 30.4757 33.8484 27.8654C35.6797 25.2551 36.6572 22.1862 36.6572 19.0468C36.6574 16.9623 36.2264 14.8982 35.3889 12.9723C34.5514 11.0464 33.3237 9.29652 31.776 7.82254C30.2284 6.34856 28.391 5.17937 26.3688 4.38174C24.3466 3.5841 22.1793 3.17366 19.9905 3.17383ZM25.2897 27.2254C25.2273 27.3735 25.1324 27.5072 25.0113 27.6176C24.8902 27.7279 24.7458 27.8124 24.5876 27.8652C24.4295 27.918 24.2613 27.9381 24.0944 27.9239C23.9274 27.9098 23.7656 27.8619 23.6197 27.7833L19.0953 24.4351L16.1914 26.9865C16.124 27.0339 16.0452 27.0645 15.9622 27.0753C15.8792 27.0861 15.7947 27.0768 15.7164 27.0483L16.2731 22.3047L16.2909 22.3182L16.3023 22.2246C16.3023 22.2246 24.4439 15.165 24.7756 14.8642C25.1114 14.5642 25.0006 14.4992 25.0006 14.4992C25.0197 14.1332 24.3981 14.4992 24.3981 14.4992L13.6105 21.1087L9.11804 19.6516C9.11804 19.6516 8.42804 19.4159 8.36304 18.8976C8.29471 18.3834 9.14053 18.104 9.14053 18.104L27.0022 11.346C27.0022 11.346 28.4705 10.723 28.4705 11.7548L25.2897 27.2254Z" fill="black"/>
</svg>
