<svg width="40" height="39" viewBox="0 0 40 39" fill="none" xmlns="http://www.w3.org/2000/svg">
<path d="M36.6503 10.6101C36.6362 9.91467 36.5786 9.22075 36.4778 8.53214C36.3583 7.92042 36.1552 7.32697 35.874 6.76757C35.2572 5.58211 34.2676 4.61884 33.0493 4.01775C32.4774 3.745 31.8707 3.54762 31.2452 3.43084C30.5317 3.33089 29.8125 3.2738 29.0918 3.25991C28.786 3.24912 28.3903 3.24379 28.2077 3.24379L11.7949 3.24121C11.613 3.24121 11.2172 3.24656 10.9111 3.25714C10.196 3.27081 9.48237 3.32683 8.77426 3.4249C8.1452 3.54113 7.53494 3.73858 6.95967 4.01201C5.74064 4.61193 4.75005 5.57418 4.13181 6.75896C3.85141 7.3151 3.64845 7.90508 3.52827 8.51334C3.42558 9.20717 3.36687 9.90648 3.35249 10.6073C3.34161 10.9047 3.33602 11.2895 3.33602 11.467L3.33337 27.4276C3.33337 27.6043 3.33887 27.9892 3.34976 28.287C3.36381 28.9824 3.42142 29.6763 3.52227 30.3649C3.64181 30.9766 3.84485 31.5701 4.12602 32.1295C4.74291 33.3149 5.7324 34.2781 6.95072 34.8793C7.52266 35.152 8.1294 35.3493 8.75492 35.4662C9.46841 35.5662 10.1875 35.6233 10.9083 35.6371C11.2139 35.6478 11.6098 35.6533 11.7923 35.6533L28.2052 35.6559C28.387 35.6559 28.7829 35.6505 29.0889 35.6399C29.804 35.6262 30.5177 35.5702 31.2258 35.4722C31.8548 35.3559 32.465 35.1584 33.0403 34.885C34.2593 34.2851 35.2499 33.3229 35.8682 32.1381C36.1486 31.582 36.3516 30.992 36.4717 30.3837C36.5745 29.6899 36.6332 28.9906 36.6476 28.2897C36.6586 27.9924 36.6641 27.6076 36.6641 27.4301L36.6667 11.4695C36.6667 11.2927 36.6612 10.9077 36.6503 10.6101ZM20.3613 30.7231H20.3564C18.3726 30.723 16.4205 30.2397 14.6782 29.3173L8.37936 30.9234L10.065 24.9378C8.75908 22.7342 8.23719 20.1733 8.58029 17.652C8.92338 15.1306 10.1123 12.7898 11.9627 10.9924C13.8131 9.19502 16.2216 8.04149 18.8147 7.71066C21.4079 7.37984 24.0409 7.8902 26.3054 9.16261C28.5699 10.435 30.3395 12.3984 31.3398 14.7484C32.3401 17.0983 32.5152 19.7035 31.8379 22.1601C31.1607 24.6166 29.6689 26.7873 27.5939 28.3355C25.5189 29.8837 22.9767 30.7229 20.3613 30.7231V30.7231Z" fill="black"/>
<path d="M20.3651 9.56445C18.6004 9.56405 16.8677 10.0234 15.3474 10.8948C13.8271 11.7662 12.5746 13.0177 11.7201 14.5193C10.8657 16.0208 10.4406 17.7176 10.4889 19.433C10.5373 21.1485 11.0574 22.82 11.9951 24.2738L12.23 24.6371L11.2323 28.1797L14.97 27.2265L15.3306 27.4346C16.8525 28.3109 18.5886 28.7731 20.3572 28.7729H20.3612C22.9784 28.7701 25.4874 27.7573 27.3372 25.9569C29.1871 24.1565 30.2264 21.7157 30.2269 19.1706C30.2274 16.6255 29.1891 14.1843 27.34 12.3832C25.491 10.582 22.9823 9.56823 20.3651 9.56445H20.3651ZM26.1741 23.2921C25.9555 23.6429 25.6646 23.9459 25.3198 24.1821C24.9749 24.4182 24.5835 24.5825 24.1702 24.6644C23.5462 24.7682 22.9059 24.7291 22.3002 24.5501C21.7254 24.3765 21.1604 24.1735 20.6076 23.9421C18.5572 22.9415 16.8095 21.4397 15.536 19.5841C14.8417 18.7248 14.4203 17.6872 14.3237 16.5984C14.3155 16.1489 14.4036 15.7027 14.5825 15.2881C14.7614 14.8736 15.0272 14.4998 15.3628 14.1907C15.4621 14.0806 15.5836 13.9917 15.7198 13.9296C15.8561 13.8674 16.0041 13.8334 16.1545 13.8295C16.3524 13.8295 16.5505 13.8313 16.7235 13.8397C16.9057 13.8485 17.1505 13.7723 17.3915 14.3352C17.6389 14.913 18.2327 16.3336 18.3068 16.478C18.3539 16.5537 18.3808 16.6395 18.3851 16.7278C18.3894 16.8161 18.371 16.9041 18.3316 16.9837C18.2568 17.1572 18.1568 17.3194 18.0347 17.4653C17.8863 17.6338 17.7229 17.8416 17.5894 17.9709C17.4407 18.1149 17.286 18.2711 17.4591 18.5599C17.905 19.3021 18.4617 19.9759 19.1108 20.5593C19.8149 21.1682 20.6229 21.653 21.4983 21.9919C21.7951 22.1364 21.9683 22.1123 22.1415 21.9197C22.3147 21.7271 22.8837 21.0769 23.0815 20.788C23.2793 20.4991 23.4773 20.5472 23.7494 20.6436C24.0215 20.74 25.4813 21.4381 25.7782 21.5826C26.0752 21.727 26.273 21.7993 26.3472 21.9197C26.4285 22.3838 26.3684 22.8609 26.1741 23.2922V23.2921Z" fill="black"/>
</svg>
